<?xml version="1.0" encoding="UTF-8"?>
<svg id="Layer_2" data-name="Layer 2" xmlns="http://www.w3.org/2000/svg" viewBox="0 0 906.98 356.4">
  <defs>
    <style>
      .cls-1, .cls-2 {
        stroke-width: 0px;
      }

      .cls-1, .cls-3 {
        fill: #000;
      }

      .cls-4 {
        letter-spacing: 0em;
      }

      .cls-2 {
        fill: #fff;
      }

      .cls-3 {
        font-family: MyriadPro-Regular, 'Myriad Pro';
        font-size: 130px;
      }
    </style>
  </defs>
  <g id="Layer_1-2" data-name="Layer 1">
    <g>
      <path class="cls-1" d="M0,.4C1.25.2,1.87.01,2.48.01,303.71,0,604.95,0,905.94,0c1.41,1.21.99,2.56.96,3.78-.34,11.35-.75,22.7-1.07,34.05-.36,12.63-.53,25.26-.97,37.89-.62,17.58-1.62,35.15-3.84,52.62-2.42,19.09-6.17,37.89-13.58,55.75-21.32,51.42-58.73,85.53-111.41,103.02-14.93,4.96-30.31,7.88-46.03,8.83-6.22.38-12.46.68-18.69.69-45.91.11-91.83.16-137.74.19-80.79.05-161.58.08-242.37.08-33.11,0-66.23-.1-99.34-.16-9.6-.02-19.2,0-28.79-.09-31.28-.3-61.3-6.4-89.63-19.94-37.53-17.93-66.42-45.14-86.77-81.38-12.59-22.41-20.39-46.47-24.11-71.89C.77,111.23.02,98.95.01,86.62-.01,59.75,0,32.87,0,6c0-1.74,0-3.48,0-5.6ZM17.64,17.61c-1.04,2.23-.7,4.02-.7,5.74,0,22.08.05,44.15.08,66.23.03,20.13,2.97,39.85,8.86,59.08,9.75,31.87,26.43,59.52,51.1,82.09,30.75,28.14,67.31,43,108.59,46.63,8.59.75,17.25.84,25.89.93,36.15.36,72.3.63,108.44.86,22.88.14,45.75.2,68.63.21,42.39.01,84.79-.02,127.18-.08,23.51-.04,47.03-.16,70.54-.28,16.15-.08,32.31-.25,48.46-.33,27.51-.13,55.03-.22,82.54-.34,14.12-.06,28.1-1.43,41.86-4.69,31.67-7.5,58.88-22.78,80.94-46.86,16.72-18.25,28.19-39.46,35.24-63.12,4.85-16.3,7.71-33.01,9.36-49.89,1.63-16.71,2.66-33.47,3.87-50.22,1-13.88,1.88-27.76,2.79-41.64.08-1.24.01-2.49.01-3.86-.8-.17-1.4-.42-2.01-.42-290.5-.02-581-.02-871.67-.02Z"/>
      <path class="cls-2" d="M17.64,17.61c290.67,0,581.17,0,871.67.02.6,0,1.21.24,2.01.42,0,1.37.07,2.62-.01,3.86-.91,13.88-1.79,27.77-2.79,41.64-1.21,16.75-2.23,33.51-3.87,50.22-1.65,16.88-4.51,33.59-9.36,49.89-7.05,23.66-18.52,44.87-35.24,63.12-22.06,24.08-49.27,39.36-80.94,46.86-13.76,3.26-27.74,4.63-41.86,4.69-27.51.12-55.03.2-82.54.34-16.15.08-32.31.25-48.46.33-23.51.12-47.03.24-70.54.28-42.39.07-84.79.09-127.18.08-22.88,0-45.75-.06-68.63-.21-36.15-.23-72.3-.5-108.44-.86-8.63-.08-17.3-.17-25.89-.93-41.28-3.63-77.84-18.49-108.59-46.63-24.67-22.57-41.34-50.22-51.1-82.09-5.89-19.23-8.83-38.95-8.86-59.08-.03-22.08-.07-44.15-.08-66.23,0-1.72-.34-3.5.7-5.74ZM416.91,71.59c-4.13.43-8.3.58-12.37,1.34-27.46,5.14-46.52,20.81-57.27,46.47-4.97,11.87-6.35,24.35-4.91,37.15,2.04,18.16,9.27,33.9,22.62,46.4,19.24,18.02,42.17,24.08,67.84,18.93,39.71-7.97,66.68-46.28,59.14-87.47-6.88-37.56-40.4-63.07-75.05-62.83ZM252.07,137.67c2.83-.42,5.71-.64,8.48-1.3,16.96-4.03,29.62-20.33,28.92-37.62-.51-12.63-6.5-22.48-16.62-29.87-4.45-3.25-9.43-5.4-14.86-6.29-22.07-3.64-40.15,13.93-43.07,31.42-4.04,24.18,17.19,43.81,37.15,43.66ZM676.91,112.75c2.21-.3,4.47-.39,6.62-.92,13.29-3.31,22.09-11.62,26.67-24.43,1.52-4.26,2.16-8.71,1.61-13.21-1.65-13.35-8.51-23.18-20.39-29.43-6.44-3.39-13.38-4.31-20.49-3.04-15.93,2.84-28.28,16.77-29.34,32.92-1.4,21.45,16.86,38.4,35.32,38.1ZM676.56,183.31c-1.75.13-3.54.08-5.25.43-13.82,2.82-23.47,10.83-27.98,24.14-4.43,13.06-1.45,24.99,7.84,35.11,7.19,7.84,16.37,11.83,27,11.23,22.92-1.31,37.17-22.99,32.98-42.4-3.86-17.84-19.95-28.87-34.58-28.5ZM748.48,182.95c3.14-.5,6.35-.75,9.42-1.56,18.84-4.96,30.1-24.57,24.5-42.92-4.08-13.36-13.27-21.84-26.83-24.69-13.38-2.81-25.04,1.3-34.17,11.57-7.61,8.57-10.13,18.7-7.78,29.91,3.36,16.05,18.37,27.71,34.86,27.68ZM605.64,182.68c17.34.68,34.82-12.09,35.08-34.56.23-20.12-14.5-35.03-34.56-35.11-19.19-.07-34.93,13.76-34.89,34.85.05,23.49,18.49,35.27,34.37,34.82Z"/>
      <path class="cls-1" d="M416.91,71.59c34.65-.24,68.17,25.27,75.05,62.83,7.54,41.19-19.43,79.5-59.14,87.47-25.67,5.15-48.61-.91-67.84-18.93-13.35-12.51-20.58-28.24-22.62-46.4-1.44-12.8-.06-25.29,4.91-37.15,10.75-25.66,29.81-41.34,57.27-46.47,4.06-.76,8.24-.91,12.37-1.34Z"/>
      <path class="cls-1" d="M252.07,137.67c-19.96.15-41.19-19.48-37.15-43.66,2.92-17.5,21-35.06,43.07-31.42,5.43.9,10.41,3.05,14.86,6.29,10.13,7.39,16.11,17.24,16.62,29.87.7,17.28-11.96,33.58-28.92,37.62-2.77.66-5.65.88-8.48,1.3Z"/>
      <path class="cls-1" d="M676.91,112.75c-18.46.3-36.72-16.65-35.32-38.1,1.05-16.16,13.41-30.08,29.34-32.92,7.11-1.27,14.05-.35,20.49,3.04,11.88,6.25,18.74,16.08,20.39,29.43.56,4.5-.08,8.95-1.61,13.21-4.59,12.81-13.38,21.12-26.67,24.43-2.15.53-4.41.63-6.62.92Z"/>
      <path class="cls-1" d="M676.56,183.31c14.63-.37,30.73,10.66,34.58,28.5,4.2,19.42-10.05,41.1-32.98,42.4-10.63.6-19.81-3.39-27-11.23-9.28-10.12-12.27-22.05-7.84-35.11,4.51-13.31,14.16-21.32,27.98-24.14,1.71-.35,3.5-.3,5.25-.43Z"/>
      <path class="cls-1" d="M748.48,182.95c-16.5.02-31.51-11.63-34.86-27.68-2.34-11.21.17-21.34,7.78-29.91,9.12-10.27,20.78-14.38,34.17-11.57,13.56,2.84,22.75,11.32,26.83,24.69,5.6,18.35-5.66,37.96-24.5,42.92-3.06.81-6.27,1.05-9.42,1.56Z"/>
      <path class="cls-1" d="M605.64,182.68c-15.88.44-34.32-11.33-34.37-34.82-.04-21.09,15.69-34.92,34.89-34.85,20.06.08,34.79,14.99,34.56,35.11-.26,22.47-17.74,35.24-35.08,34.56Z"/>
    </g>
    <text class="cls-3" transform="translate(180.5 129.9)"><tspan x="0" y="0">j</tspan><tspan class="cls-4" x="31.59" y="0">o</tspan><tspan x="102.05" y="0">y </tspan></text>
    <text class="cls-3" transform="translate(466.2 275.6)"><tspan x="0" y="0">SC</tspan></text>
  </g>
</svg>